HIERARCHY
ROOT mixamorig:Hips
{
	OFFSET 0.000000 201.639420 0.000000
	CHANNELS 6 Xposition Yposition Zposition Xrotation Yrotation Zrotation
	JOINT mixamorig:Spine
	{
		OFFSET 0.006200 19.524994 -2.481800
		CHANNELS 3 Xrotation Yrotation Zrotation
		JOINT mixamorig:Spine1
		{
			OFFSET -0.000900 22.835007 -2.825400
			CHANNELS 3 Xrotation Yrotation Zrotation
			JOINT mixamorig:Spine2
			{
				OFFSET -0.020600 26.552490 -3.193300
				CHANNELS 3 Xrotation Yrotation Zrotation
				JOINT mixamorig:Neck
				{
					OFFSET -0.060000 30.701813 1.352200
					CHANNELS 3 Xrotation Yrotation Zrotation
					JOINT mixamorig:Head
					{
						OFFSET -0.087200 22.547607 3.670900
						CHANNELS 3 Xrotation Yrotation Zrotation
						JOINT mixamorig:HeadTop_End
						{
							OFFSET -0.830600 40.355194 7.893500
							CHANNELS 3 Xrotation Yrotation Zrotation
							End Site
							{
								OFFSET 0.000000 30.592346 0.000000
							}
						}
						JOINT mixamorig:RightEye
						{
							OFFSET -6.302100 18.118591 16.197100
							CHANNELS 3 Xrotation Yrotation Zrotation
							End Site
							{
								OFFSET 0.000000 30.592346 0.000000
							}
						}
						JOINT mixamorig:LeftEye
						{
							OFFSET 6.741500 18.382690 16.401899
							CHANNELS 3 Xrotation Yrotation Zrotation
							End Site
							{
								OFFSET 0.000000 30.592346 0.000000
							}
						}
					}
				}
				JOINT mixamorig:LeftShoulder
				{
					OFFSET 11.924900 18.230499 1.425400
					CHANNELS 3 Xrotation Yrotation Zrotation
					JOINT mixamorig:LeftArm
					{
						OFFSET 25.435989 -0.697632 -5.229300
						CHANNELS 3 Xrotation Yrotation Zrotation
						JOINT mixamorig:LeftForeArm
						{
							OFFSET 54.684776 0.000000 0.000000
							CHANNELS 3 Xrotation Yrotation Zrotation
							JOINT mixamorig:LeftHand
							{
								OFFSET 55.098175 0.000000 0.000000
								CHANNELS 3 Xrotation Yrotation Zrotation
								JOINT mixamorig:LeftHandMiddle1
								{
									OFFSET 23.369751 0.000000 0.000000
									CHANNELS 3 Xrotation Yrotation Zrotation
									JOINT mixamorig:LeftHandMiddle2
									{
										OFFSET 6.378677 0.000000 0.000000
										CHANNELS 3 Xrotation Yrotation Zrotation
										JOINT mixamorig:LeftHandMiddle3
										{
											OFFSET 6.148331 0.000000 0.000000
											CHANNELS 3 Xrotation Yrotation Zrotation
											JOINT mixamorig:LeftHandMiddle4
											{
												OFFSET 6.582504 0.000000 0.000000
												CHANNELS 3 Xrotation Yrotation Zrotation
												End Site
												{
													OFFSET -1.168900 6.395691 1.028606
												}
											}
										}
									}
								}
								JOINT mixamorig:LeftHandThumb1
								{
									OFFSET 7.235672 -3.848206 5.434273
									CHANNELS 3 Xrotation Yrotation Zrotation
									JOINT mixamorig:LeftHandThumb2
									{
										OFFSET 6.568451 -3.792297 3.792300
										CHANNELS 3 Xrotation Yrotation Zrotation
										JOINT mixamorig:LeftHandThumb3
										{
											OFFSET 6.063080 -3.500519 3.500518
											CHANNELS 3 Xrotation Yrotation Zrotation
											JOINT mixamorig:LeftHandThumb4
											{
												OFFSET 4.793182 -2.767334 2.767349
												CHANNELS 3 Xrotation Yrotation Zrotation
												End Site
												{
													OFFSET 0.101639 6.054260 1.275483
												}
											}
										}
									}
								}
								JOINT mixamorig:LeftHandIndex1
								{
									OFFSET 23.101074 -0.309540 4.992809
									CHANNELS 3 Xrotation Yrotation Zrotation
									JOINT mixamorig:LeftHandIndex2
									{
										OFFSET 6.226883 0.000000 0.000000
										CHANNELS 3 Xrotation Yrotation Zrotation
										JOINT mixamorig:LeftHandIndex3
										{
											OFFSET 6.094330 0.000000 0.000000
											CHANNELS 3 Xrotation Yrotation Zrotation
											JOINT mixamorig:LeftHandIndex4
											{
												OFFSET 5.482605 0.000000 0.000000
												CHANNELS 3 Xrotation Yrotation Zrotation
												End Site
												{
													OFFSET -1.427902 5.233032 0.797164
												}
											}
										}
									}
								}
								JOINT mixamorig:LeftHandRing1
								{
									OFFSET 22.299240 0.021149 -3.964172
									CHANNELS 3 Xrotation Yrotation Zrotation
									JOINT mixamorig:LeftHandRing2
									{
										OFFSET 6.321869 0.000000 0.000000
										CHANNELS 3 Xrotation Yrotation Zrotation
										JOINT mixamorig:LeftHandRing3
										{
											OFFSET 5.899796 0.000000 0.000000
											CHANNELS 3 Xrotation Yrotation Zrotation
											JOINT mixamorig:LeftHandRing4
											{
												OFFSET 6.517899 0.000000 0.000000
												CHANNELS 3 Xrotation Yrotation Zrotation
												End Site
												{
													OFFSET -1.637299 6.232208 0.980890
												}
											}
										}
									}
								}
								JOINT mixamorig:LeftHandPinky1
								{
									OFFSET 20.463791 -0.302338 -8.562233
									CHANNELS 3 Xrotation Yrotation Zrotation
									JOINT mixamorig:LeftHandPinky2
									{
										OFFSET 6.908646 0.000000 0.000000
										CHANNELS 3 Xrotation Yrotation Zrotation
										JOINT mixamorig:LeftHandPinky3
										{
											OFFSET 4.622849 0.000000 0.000000
											CHANNELS 3 Xrotation Yrotation Zrotation
											JOINT mixamorig:LeftHandPinky4
											{
												OFFSET 5.216080 0.000000 0.000000
												CHANNELS 3 Xrotation Yrotation Zrotation
												End Site
												{
													OFFSET -0.606308 5.116241 0.814926
												}
											}
										}
									}
								}
							}
						}
					}
				}
				JOINT mixamorig:RightShoulder
				{
					OFFSET -12.001300 18.284088 1.348900
					CHANNELS 3 Xrotation Yrotation Zrotation
					JOINT mixamorig:RightArm
					{
						OFFSET -25.308500 -0.751312 -5.164599
						CHANNELS 3 Xrotation Yrotation Zrotation
						JOINT mixamorig:RightForeArm
						{
							OFFSET -54.684429 0.000000 0.000000
							CHANNELS 3 Xrotation Yrotation Zrotation
							JOINT mixamorig:RightHand
							{
								OFFSET -55.150291 0.000000 0.000000
								CHANNELS 3 Xrotation Yrotation Zrotation
								JOINT mixamorig:RightHandMiddle1
								{
									OFFSET -23.317566 0.000000 0.000000
									CHANNELS 3 Xrotation Yrotation Zrotation
									JOINT mixamorig:RightHandMiddle2
									{
										OFFSET -6.378403 0.000000 0.000000
										CHANNELS 3 Xrotation Yrotation Zrotation
										JOINT mixamorig:RightHandMiddle3
										{
											OFFSET -6.148193 0.000000 0.000000
											CHANNELS 3 Xrotation Yrotation Zrotation
											JOINT mixamorig:RightHandMiddle4
											{
												OFFSET -6.583389 0.000000 0.000000
												CHANNELS 3 Xrotation Yrotation Zrotation
												End Site
												{
													OFFSET 1.171692 6.395905 1.029786
												}
											}
										}
									}
								}
								JOINT mixamorig:RightHandThumb1
								{
									OFFSET -7.190521 -3.860474 5.435846
									CHANNELS 3 Xrotation Yrotation Zrotation
									JOINT mixamorig:RightHandThumb2
									{
										OFFSET -6.567429 -3.791718 3.791708
										CHANNELS 3 Xrotation Yrotation Zrotation
										JOINT mixamorig:RightHandThumb3
										{
											OFFSET -6.062469 -3.500153 3.500166
											CHANNELS 3 Xrotation Yrotation Zrotation
											JOINT mixamorig:RightHandThumb4
											{
												OFFSET -4.792618 -2.767029 2.767022
												CHANNELS 3 Xrotation Yrotation Zrotation
												End Site
												{
													OFFSET -0.100327 6.053253 1.276754
												}
											}
										}
									}
								}
								JOINT mixamorig:RightHandIndex1
								{
									OFFSET -23.048981 -0.310791 4.992554
									CHANNELS 3 Xrotation Yrotation Zrotation
									JOINT mixamorig:RightHandIndex2
									{
										OFFSET -6.227539 0.000000 0.000000
										CHANNELS 3 Xrotation Yrotation Zrotation
										JOINT mixamorig:RightHandIndex3
										{
											OFFSET -6.095047 0.000000 0.000000
											CHANNELS 3 Xrotation Yrotation Zrotation
											JOINT mixamorig:RightHandIndex4
											{
												OFFSET -5.484772 0.000000 0.000000
												CHANNELS 3 Xrotation Yrotation Zrotation
												End Site
												{
													OFFSET 1.420593 5.237305 0.797056
												}
											}
										}
									}
								}
								JOINT mixamorig:RightHandRing1
								{
									OFFSET -22.246323 0.020569 -3.963762
									CHANNELS 3 Xrotation Yrotation Zrotation
									JOINT mixamorig:RightHandRing2
									{
										OFFSET -6.322128 0.000000 0.000000
										CHANNELS 3 Xrotation Yrotation Zrotation
										JOINT mixamorig:RightHandRing3
										{
											OFFSET -5.900024 0.000000 0.000000
											CHANNELS 3 Xrotation Yrotation Zrotation
											JOINT mixamorig:RightHandRing4
											{
												OFFSET -6.518356 0.000000 0.000000
												CHANNELS 3 Xrotation Yrotation Zrotation
												End Site
												{
													OFFSET 1.636398 6.232697 0.982186
												}
											}
										}
									}
								}
								JOINT mixamorig:RightHandPinky1
								{
									OFFSET -20.411011 -0.303314 -8.561701
									CHANNELS 3 Xrotation Yrotation Zrotation
									JOINT mixamorig:RightHandPinky2
									{
										OFFSET -6.907349 0.000000 0.000000
										CHANNELS 3 Xrotation Yrotation Zrotation
										JOINT mixamorig:RightHandPinky3
										{
											OFFSET -4.623840 0.000000 0.000000
											CHANNELS 3 Xrotation Yrotation Zrotation
											JOINT mixamorig:RightHandPinky4
											{
												OFFSET -5.218353 0.000000 0.000000
												CHANNELS 3 Xrotation Yrotation Zrotation
												End Site
												{
													OFFSET 0.602097 5.118835 0.816273
												}
											}
										}
									}
								}
							}
						}
					}
				}
			}
		}
	}
	JOINT mixamorig:LeftUpLeg
	{
		OFFSET 18.168400 -13.561905 -0.039000
		CHANNELS 3 Xrotation Yrotation Zrotation
		JOINT mixamorig:LeftLeg
		{
			OFFSET 0.577358 -80.825211 -3.695000
			CHANNELS 3 Xrotation Yrotation Zrotation
			JOINT mixamorig:LeftFoot
			{
				OFFSET -0.577356 -83.370262 -6.520700
				CHANNELS 3 Xrotation Yrotation Zrotation
				JOINT mixamorig:LeftToeBase
				{
					OFFSET 0.750401 -20.798306 25.135401
					CHANNELS 3 Xrotation Yrotation Zrotation
					JOINT mixamorig:LeftToe_End
					{
						OFFSET -0.000500 0.001200 19.917799
						CHANNELS 3 Xrotation Yrotation Zrotation
						End Site
						{
							OFFSET 0.000000 19.917805 0.000000
						}
					}
				}
			}
		}
	}
	JOINT mixamorig:RightUpLeg
	{
		OFFSET -18.162500 -13.585098 -0.041000
		CHANNELS 3 Xrotation Yrotation Zrotation
		JOINT mixamorig:RightLeg
		{
			OFFSET -0.595024 -80.945297 -3.631900
			CHANNELS 3 Xrotation Yrotation Zrotation
			JOINT mixamorig:RightFoot
			{
				OFFSET 0.595024 -83.218193 -6.561200
				CHANNELS 3 Xrotation Yrotation Zrotation
				JOINT mixamorig:RightToeBase
				{
					OFFSET -0.753601 -20.807106 25.115000
					CHANNELS 3 Xrotation Yrotation Zrotation
					JOINT mixamorig:RightToe_End
					{
						OFFSET 0.000299 0.001700 19.918200
						CHANNELS 3 Xrotation Yrotation Zrotation
						End Site
						{
							OFFSET 0.000000 19.918203 0.000000
						}
					}
				}
			}
		}
	}
}
MOTION
Frames: 5
Frame Time: 0.033333
0.510984 196.485733 -0.216142 -0.860756 -3.591467 -2.405779 2.099046 1.008606 3.087129 4.233302 2.130976 4.049029 4.246875 2.141566 4.023147 4.113550 -1.100568 -0.401393 5.181024 -4.651620 -5.481616 -0.000002 -0.000000 -0.000000 -0.000002 -0.000000 -0.000000 -0.000002 -0.000000 -0.000000 0.586129 -3.108729 -12.728618 -2.533678 -10.710449 -68.589429 -0.000002 -28.288070 -0.000006 15.740956 5.849818 -0.160097 0.361762 4.689001 -36.386279 3.416850 5.322272 -65.378202 3.548286 5.380304 -66.787345 0.000003 -0.000001 -0.000003 7.216280 3.036049 4.678248 19.041478 14.324624 16.206295 -8.841968 22.433014 3.266105 -0.000001 0.000003 0.000001 1.885415 7.978873 -21.931912 1.874598 4.295602 -47.136700 1.246047 3.613419 -38.041811 0.000001 0.000000 -0.000001 1.247612 5.966339 -44.991627 4.384742 5.664964 -75.462191 3.487755 5.354053 -66.140362 -0.000003 -0.000001 0.000001 3.455168 7.819830 -53.004583 3.614801 5.408227 -67.494925 2.695073 4.929442 -57.312800 -0.000001 0.000002 -0.000001 0.469526 4.192232 18.066747 -16.564703 3.555763 57.018337 -0.000001 7.932005 -0.000003 30.654511 -22.745823 4.815360 -8.598050 5.571552 42.628990 5.312398 -4.610958 98.096488 4.409420 -4.650584 86.947229 -0.000001 0.000001 -0.000003 6.781338 4.131772 -10.204882 -7.650980 -38.904556 -1.834742 7.961803 -27.076183 -17.039840 0.000000 0.000000 -0.000002 -0.336325 1.210993 6.039811 1.992202 -3.820679 55.064517 1.676451 -3.579944 50.174880 -0.000000 0.000001 0.000000 -11.292990 3.793063 54.122351 4.475840 -4.653647 87.766018 4.369912 -4.648294 86.460018 -0.000002 -0.000000 -0.000004 -11.476415 0.348182 64.642276 2.460003 -4.107306 61.823689 2.905784 -4.315976 67.888098 -0.000001 -0.000000 0.000000 -26.351001 16.067083 10.651348 20.103560 -5.169346 1.230596 4.867840 0.235245 -1.763272 0.957942 -2.032652 0.022261 -0.000000 -0.000000 0.000000 -14.019935 -15.256124 1.521380 26.137665 -3.557504 -1.625826 -12.611871 0.356552 -0.113731 1.800541 0.000009 0.000003 -0.000000 -0.000001 0.000000 
0.538118 196.495163 -0.243522 -0.872084 -3.574286 -2.411550 2.099038 1.008630 3.087502 4.233301 2.130975 4.049028 4.246877 2.141564 4.023142 4.113551 -1.100566 -0.401384 5.157352 -4.650508 -5.535013 -0.000001 0.000000 -0.000000 -0.000001 0.000000 -0.000000 -0.000001 0.000000 -0.000000 0.587017 -3.108562 -12.712266 -2.533455 -10.723523 -68.598151 0.000005 -28.342107 0.000009 15.734452 5.871270 -0.164949 0.365888 4.698806 -36.487229 3.359046 5.295506 -64.753445 3.490743 5.355379 -66.172259 -0.000004 0.000000 -0.000001 7.220372 3.013296 4.680318 19.053417 14.332413 16.188807 -8.837379 22.374062 3.268280 0.000002 0.000003 0.000005 1.895917 8.000574 -21.954859 1.864044 4.285812 -46.995724 1.227801 3.590036 -37.751388 -0.000001 0.000002 -0.000001 1.249058 5.968202 -45.014509 4.324061 5.648965 -74.846729 3.430530 5.328485 -65.525454 0.000001 -0.000001 0.000002 3.456540 7.820456 -53.018913 3.556946 5.383994 -66.879764 2.642491 4.895424 -56.698606 -0.000003 0.000001 -0.000000 0.469527 4.192234 18.066759 -16.079701 3.262131 56.950309 0.000003 8.698495 -0.000000 30.945477 -22.305943 4.996633 -8.599632 5.568821 42.640550 5.288900 -4.614229 97.804375 4.278984 -4.641814 85.337005 -0.000001 -0.000001 -0.000001 7.182017 4.758365 -9.672336 -8.451876 -38.480125 -2.712766 7.961809 -27.076173 -17.039831 0.000002 -0.000001 -0.000001 -0.333581 1.197589 6.019810 1.935063 -3.780207 54.202500 1.614279 -3.527284 49.172082 -0.000000 -0.000001 -0.000001 -11.291818 3.796154 54.111460 4.477179 -4.653708 87.782459 4.371256 -4.648382 86.476506 -0.000000 0.000000 0.000000 -11.342930 0.306266 64.560820 2.453256 -4.103697 61.729447 2.900855 -4.313981 67.822651 -0.000001 0.000000 0.000001 -26.329946 16.075675 10.634195 20.065991 -5.183904 1.232596 4.891310 0.233862 -1.747893 0.966929 -2.053955 0.022708 -0.000000 -0.000000 -0.000000 -13.999850 -15.224661 1.552011 26.102512 -3.609336 -1.663167 -12.596301 0.353570 -0.097506 1.778114 -0.000000 -0.000000 -0.000000 -0.000002 -0.000000 
0.550387 196.497055 -0.282921 -0.885185 -3.557040 -2.426774 2.098946 1.008879 3.092784 4.233303 2.130975 4.049030 4.246709 2.141898 4.027630 4.113542 -1.100568 -0.401393 5.120196 -4.633224 -5.571090 -0.000001 0.000000 -0.000000 -0.000001 0.000000 -0.000000 -0.000001 0.000000 -0.000000 0.587102 -3.108548 -12.710724 -2.495607 -10.726576 -68.579191 -0.000002 -28.441148 -0.000007 15.706438 5.911879 -0.171475 0.370014 4.708583 -36.588196 3.301563 5.268133 -64.128790 3.433479 5.329817 -65.557283 -0.000003 -0.000003 0.000001 7.224526 2.990611 4.682405 19.065792 14.340622 16.170767 -8.833407 22.315212 3.270841 0.000000 0.000001 0.000001 1.906431 8.022230 -21.977790 1.853510 4.275989 -46.854493 1.209658 3.566523 -37.460787 0.000000 -0.000000 -0.000002 1.250502 5.970060 -45.037403 4.263540 5.632298 -74.230803 3.373512 5.302257 -64.910054 0.000001 0.000002 0.000001 3.457924 7.821060 -53.033383 3.499373 5.359158 -66.264672 2.590265 4.860836 -56.084459 -0.000002 -0.000001 -0.000001 0.482959 4.196605 18.065774 -15.627630 2.973557 56.887652 -0.000003 9.425120 0.000023 31.236535 -21.853766 5.190684 -8.601149 5.566254 42.651526 5.264616 -4.617484 97.502535 4.148118 -4.629318 83.717909 0.000000 0.000001 -0.000004 7.592692 5.418930 -9.112981 -9.248943 -38.053187 -3.585302 7.956661 -27.076767 -17.041464 0.000001 0.000000 -0.000002 -0.331280 1.182604 6.008119 1.879610 -3.739691 53.357144 1.554070 -3.474456 48.186015 -0.000000 0.000001 -0.000002 -11.290570 3.799512 54.099787 4.477315 -4.653703 87.784071 4.371378 -4.648383 86.478104 -0.000002 0.000000 0.000002 -11.208502 0.261935 64.484362 2.450430 -4.102175 61.689927 2.900069 -4.313653 67.812153 0.000000 0.000000 0.000001 -26.327989 16.078178 10.637231 20.050736 -5.202329 1.238430 4.911189 0.232169 -1.741438 0.972018 -2.058758 0.022861 -0.000000 0.000001 -0.000000 -13.981255 -15.188848 1.602925 26.074671 -3.676876 -1.703971 -12.587712 0.352815 -0.092968 1.785627 -0.000004 -0.000002 -0.000000 -0.000000 -0.000000 
0.545995 196.493134 -0.343055 -0.902085 -3.553453 -2.454717 2.098734 1.009432 3.104923 4.237327 2.132002 4.058524 4.250754 2.142966 4.037653 4.113461 -1.112846 -0.400505 5.069661 -4.603857 -5.598490 -0.000000 -0.000000 -0.000000 -0.000000 -0.000000 -0.000000 -0.000000 -0.000000 -0.000000 0.587223 -3.108489 -12.708697 -2.460220 -10.726319 -68.562709 -0.000007 -28.513204 -0.000038 15.658419 5.936291 -0.170283 0.374157 4.718347 -36.688966 3.244354 5.240123 -63.504196 3.376501 5.303673 -64.942402 0.000002 -0.000000 0.000002 7.228736 2.967998 4.684526 19.078477 14.349112 16.152352 -8.829714 22.256463 3.273567 0.000000 -0.000001 -0.000003 1.916937 8.043864 -22.000552 1.842970 4.266110 -46.713016 1.191622 3.542910 -37.169907 0.000001 0.000000 -0.000000 1.251931 5.971919 -45.060240 4.203169 5.614991 -73.614727 3.316798 5.275449 -64.294784 0.000000 -0.000002 -0.000001 3.459309 7.821679 -53.047880 3.442067 5.333708 -65.649709 2.538420 4.825702 -55.470429 0.000004 -0.000002 0.000002 0.462201 4.189848 18.067239 -15.141353 2.684144 56.828724 -0.000003 10.174309 0.000014 31.546096 -21.418860 5.404377 -8.602622 5.563734 42.662178 5.240228 -4.620627 97.199671 4.017027 -4.613055 82.090903 -0.000001 0.000002 -0.000004 8.006939 6.103263 -8.543933 -10.037151 -37.621054 -4.446275 7.938068 -27.067068 -17.047061 -0.000002 -0.000000 -0.000002 -0.329978 1.169861 6.007621 1.825233 -3.698700 52.518643 1.495190 -3.420950 47.206866 -0.000001 0.000003 -0.000001 -11.289767 3.801667 54.092257 4.477080 -4.653703 87.781277 4.371148 -4.648372 86.475324 -0.000000 0.000001 -0.000003 -11.072521 0.216095 64.409094 2.449296 -4.101571 61.674095 2.901076 -4.314065 67.825493 -0.000002 0.000000 0.000001 -26.347071 16.088060 10.676486 20.054938 -5.227750 1.232493 4.927788 0.231724 -1.733697 0.980027 -2.097675 0.023495 -0.000000 0.000001 -0.000000 -13.961556 -15.142328 1.679797 26.048405 -3.747893 -1.746557 -12.583392 0.356121 -0.107830 1.772864 -0.000008 -0.000002 -0.000000 -0.000001 -0.000000 
0.518654 196.482651 -0.431122 -0.925935 -3.572960 -2.497123 2.103436 1.010379 3.119464 4.257398 2.138020 4.068427 4.270981 2.146483 4.048947 4.113545 -1.101510 -0.401322 5.006055 -4.598821 -5.617394 0.000000 -0.000000 0.000000 0.000000 -0.000000 0.000000 0.000000 -0.000000 0.000000 0.590056 -3.098608 -12.697184 -2.434415 -10.730464 -68.542635 0.000000 -28.571465 0.000016 15.597917 5.952011 -0.161130 0.378321 4.728067 -36.789677 3.187465 5.211499 -62.879637 3.319813 5.276909 -64.327575 -0.000000 0.000000 -0.000003 7.232941 2.945516 4.686675 19.091243 14.357698 16.133802 -8.826103 22.197825 3.276313 0.000000 0.000000 0.000001 1.927443 8.065443 -22.023190 1.832427 4.256191 -46.571184 1.173685 3.519180 -36.878701 -0.000001 -0.000002 0.000000 1.253378 5.973763 -45.083015 4.143026 5.597045 -72.999095 3.260460 5.248071 -63.680524 0.000002 -0.000000 0.000001 3.460700 7.822294 -53.062442 3.385041 5.307641 -65.034848 2.486969 4.790025 -54.856517 -0.000001 -0.000001 -0.000000 0.484051 4.197754 18.090193 -14.754976 2.427470 56.760890 -0.000003 10.855749 0.000012 31.861432 -20.952732 5.598204 -8.604943 5.559743 42.679171 5.217088 -4.623466 96.912687 3.886380 -4.593081 80.463146 0.000002 0.000001 -0.000002 8.416306 6.800553 -7.986330 -10.810334 -37.182949 -5.287853 7.901538 -27.038296 -17.057771 0.000000 0.000000 -0.000002 -0.330283 1.160482 6.025613 1.770999 -3.656556 51.673188 1.436815 -3.366074 46.220713 -0.000000 0.000002 -0.000000 -11.290061 3.800879 54.095067 4.476719 -4.653687 87.776872 4.370790 -4.648360 86.470946 -0.000000 -0.000001 -0.000002 -10.933944 0.168890 64.332719 2.448098 -4.100923 61.657361 2.902016 -4.314438 67.837972 0.000000 -0.000000 0.000001 -26.381418 16.089923 10.734488 20.078611 -5.235129 1.250756 4.943162 0.230220 -1.748411 0.987855 -2.084460 0.023540 0.000000 0.000002 -0.000000 -13.939226 -15.102779 1.778397 26.023892 -3.798726 -1.782601 -12.579083 0.365631 -0.152517 1.795956 0.000002 -0.000000 0.000000 -0.000002 -0.000000 
